<svg t="1694595964116" class="icon" viewBox="0 0 1177 1024" version="1.1" xmlns="http://www.w3.org/2000/svg" p-id="2062" width="250" height="250"><path d="M1147.904 0H29.696C13.9264 0 0 13.312 0 29.5936v708.5312c0 16.5376 13.6704 29.6192 29.696 29.6192h1118.208c15.7696 0 29.696-13.3376 29.696-29.6192V29.5936A29.952 29.952 0 0 0 1147.904 0z m-54.4256 682.6752H84.1216V85.3248h1009.3568v597.3504zM711.04 1024c73.6-1.3312 109.056-10.3936 76.2112-33.3312-32.8448-23.1936-74.9056-40.8064-76.2112-60.0064-0.7936-9.856-4.48-119.9872-4.48-119.9872h-235.52s-3.9424 110.1312-4.48 119.9872c-1.28 18.944-43.3664 36.8128-76.2112 60.0064-32.8704 23.1936 2.6112 32 76.2112 33.3312h244.48z" fill="#707070" p-id="2063"></path></svg>